<svg version="1.1" xmlns="http://www.w3.org/2000/svg" xmlns:xlink="http://www.w3.org/1999/xlink" width="38.18182" height="38.18182" viewBox="0,0,38.18182,38.18182"><g transform="translate(-220.90909,-160.90909)"><g data-paper-data="{&quot;isPaintingLayer&quot;:true}" fill="#ffffff" fill-rule="nonzero" stroke="none" stroke-width="0.5" stroke-linecap="butt" stroke-linejoin="miter" stroke-miterlimit="10" stroke-dasharray="" stroke-dashoffset="0" style="mix-blend-mode: normal"><path d="M248.39691,180c0,-2.95306 2.39394,-5.347 5.347,-5.347c2.95306,0 5.347,2.39394 5.347,5.347c0,2.95306 -2.39394,5.347 -5.347,5.347c-2.95306,0 -5.347,-2.39394 -5.347,-5.347z"/><path d="M234.653,193.74391c0,-2.95306 2.39394,-5.347 5.347,-5.347c2.95306,0 5.347,2.39394 5.347,5.347c0,2.95306 -2.39394,5.347 -5.347,5.347c-2.95306,0 -5.347,-2.39394 -5.347,-5.347z"/><path d="M220.90909,180c0,-2.95306 2.39394,-5.347 5.347,-5.347c2.95306,0 5.347,2.39394 5.347,5.347c0,2.95306 -2.39394,5.347 -5.347,5.347c-2.95306,0 -5.347,-2.39394 -5.347,-5.347z"/><path d="M234.653,166.25609c0,-2.95306 2.39394,-5.347 5.347,-5.347c2.95306,0 5.347,2.39394 5.347,5.347c0,2.95306 -2.39394,5.347 -5.347,5.347c-2.95306,0 -5.347,-2.39394 -5.347,-5.347z"/></g></g></svg>